<svg xmlns="http://www.w3.org/2000/svg" style="display: none;">

    <symbol id="circle-play" viewBox="0 0 512 512">
        <path fill="currentColor" d="M0 256a256 256 0 1 1 512 0 256 256 0 1 1 -512 0zM188.3 147.1c-7.6 4.2-12.3 12.3-12.3 20.9l0 176c0 8.7 4.7 16.7 12.3 20.9s16.8 4.1 24.3-.5l144-88c7.1-4.4 11.5-12.1 11.5-20.5s-4.4-16.1-11.5-20.5l-144-88c-7.4-4.5-16.7-4.7-24.3-.5z"/>
    </symbol>

    <symbol id="user-plus" viewBox="0 0 640 512">
        <path fill="currentColor" d="M285.7 304c98.5 0 178.3 79.8 178.3 178.3 0 16.4-13.3 29.7-29.7 29.7L77.7 512C61.3 512 48 498.7 48 482.3 48 383.8 127.8 304 226.3 304l59.4 0zM528 80c13.3 0 24 10.7 24 24l0 48 48 0c13.3 0 24 10.7 24 24s-10.7 24-24 24l-48 0 0 48c0 13.3-10.7 24-24 24s-24-10.7-24-24l0-48-48 0c-13.3 0-24-10.7-24-24s10.7-24 24-24l48 0 0-48c0-13.3 10.7-24 24-24zM256 248a120 120 0 1 1 0-240 120 120 0 1 1 0 240z"/>
    </symbol>

    <symbol id="bars" viewBox="0 0 448 512">
        <path fill="currentColor" d="M0 96C0 78.3 14.3 64 32 64l384 0c17.7 0 32 14.3 32 32s-14.3 32-32 32L32 128C14.3 128 0 113.7 0 96zM0 256c0-17.7 14.3-32 32-32l384 0c17.7 0 32 14.3 32 32s-14.3 32-32 32L32 288c-17.7 0-32-14.3-32-32zM448 416c0 17.7-14.3 32-32 32L32 448c-17.7 0-32-14.3-32-32s14.3-32 32-32l384 0c17.7 0 32 14.3 32 32z"/>
    </symbol>

    <symbol id="film" viewBox="0 0 512 512">
        <path fill="currentColor" d="M0 96C0 60.7 28.7 32 64 32l384 0c35.3 0 64 28.7 64 64l0 320c0 35.3-28.7 64-64 64L64 480c-35.3 0-64-28.7-64-64L0 96zM48 368l0 32c0 8.8 7.2 16 16 16l32 0c8.8 0 16-7.2 16-16l0-32c0-8.8-7.2-16-16-16l-32 0c-8.8 0-16 7.2-16 16zm368-16c-8.8 0-16 7.2-16 16l0 32c0 8.8 7.2 16 16 16l32 0c8.8 0 16-7.2 16-16l0-32c0-8.8-7.2-16-16-16l-32 0zM48 240l0 32c0 8.8 7.2 16 16 16l32 0c8.8 0 16-7.2 16-16l0-32c0-8.8-7.2-16-16-16l-32 0c-8.8 0-16 7.2-16 16zm368-16c-8.8 0-16 7.2-16 16l0 32c0 8.8 7.2 16 16 16l32 0c8.8 0 16-7.2 16-16l0-32c0-8.8-7.2-16-16-16l-32 0zM48 112l0 32c0 8.8 7.2 16 16 16l32 0c8.8 0 16-7.2 16-16l0-32c0-8.8-7.2-16-16-16L64 96c-8.8 0-16 7.2-16 16zM416 96c-8.8 0-16 7.2-16 16l0 32c0 8.8 7.2 16 16 16l32 0c8.8 0 16-7.2 16-16l0-32c0-8.8-7.2-16-16-16l-32 0zM160 128l0 64c0 17.7 14.3 32 32 32l128 0c17.7 0 32-14.3 32-32l0-64c0-17.7-14.3-32-32-32L192 96c-17.7 0-32 14.3-32 32zm32 160c-17.7 0-32 14.3-32 32l0 64c0 17.7 14.3 32 32 32l128 0c17.7 0 32-14.3 32-32l0-64c0-17.7-14.3-32-32-32l-128 0z"/>
    </symbol>

    <symbol id="xmark" viewBox="0 0 384 512">
        <path fill="currentColor" d="M55.1 73.4c-12.5-12.5-32.8-12.5-45.3 0s-12.5 32.8 0 45.3L147.2 256 9.9 393.4c-12.5 12.5-12.5 32.8 0 45.3s32.8 12.5 45.3 0L192.5 301.3 329.9 438.6c12.5 12.5 32.8 12.5 45.3 0s12.5-32.8 0-45.3L237.8 256 375.1 118.6c12.5-12.5 12.5-32.8 0-45.3s-32.8-12.5-45.3 0L192.5 210.7 55.1 73.4z"/>
    </symbol>

    <symbol id="check-circle" viewBox="0 0 512 512">
        <path fill="currentColor" d="M256 512a256 256 0 1 1 0-512 256 256 0 1 1 0 512zM374 145.7c-10.7-7.8-25.7-5.4-33.5 5.3L221.1 315.2 169 263.1c-9.4-9.4-24.6-9.4-33.9 0s-9.4 24.6 0 33.9l72 72c5 5 11.8 7.5 18.8 7s13.4-4.1 17.5-9.8L379.3 179.2c7.8-10.7 5.4-25.7-5.3-33.5z"/>
    </symbol>

    <symbol id="user-plus" viewBox="0 0 640 512">
        <path fill="currentColor" d="M285.7 304c98.5 0 178.3 79.8 178.3 178.3 0 16.4-13.3 29.7-29.7 29.7L77.7 512C61.3 512 48 498.7 48 482.3 48 383.8 127.8 304 226.3 304l59.4 0zM528 80c13.3 0 24 10.7 24 24l0 48 48 0c13.3 0 24 10.7 24 24s-10.7 24-24 24l-48 0 0 48c0 13.3-10.7 24-24 24s-24-10.7-24-24l0-48-48 0c-13.3 0-24-10.7-24-24s10.7-24 24-24l48 0 0-48c0-13.3 10.7-24 24-24zM256 248a120 120 0 1 1 0-240 120 120 0 1 1 0 240z"/>
    </symbol>

    <symbol id="right-to-bracket" viewBox="0 0 512 512">
        <path fill="currentColor" d="M345 273c9.4-9.4 9.4-24.6 0-33.9L201 95c-6.9-6.9-17.2-8.9-26.2-5.2S160 102.3 160 112l0 80-112 0c-26.5 0-48 21.5-48 48l0 32c0 26.5 21.5 48 48 48l112 0 0 80c0 9.7 5.8 18.5 14.8 22.2s19.3 1.7 26.2-5.2L345 273zm7 143c-17.7 0-32 14.3-32 32s14.3 32 32 32l64 0c53 0 96-43 96-96l0-256c0-53-43-96-96-96l-64 0c-17.7 0-32 14.3-32 32s14.3 32 32 32l64 0c17.7 0 32 14.3 32 32l0 256c0 17.7-14.3 32-32 32l-64 0z"/>
    </symbol>

    <symbol id="shield-halved" viewBox="0 0 512 512">
        <path fill="currentColor" d="M256 0c4.6 0 9.2 1 13.4 2.9L457.8 82.8c22 9.3 38.4 31 38.3 57.2-.5 99.2-41.3 280.7-213.6 363.2-16.7 8-36.1 8-52.8 0-172.4-82.5-213.1-264-213.6-363.2-.1-26.2 16.3-47.9 38.3-57.2L242.7 2.9C246.9 1 251.4 0 256 0zm0 66.8l0 378.1c138-66.8 175.1-214.8 176-303.4l-176-74.6 0 0z"/>
    </symbol>

    <symbol id="chevron-down" viewBox="0 0 448 512">
        <path fill="currentColor" d="M201.4 406.6c12.5 12.5 32.8 12.5 45.3 0l192-192c12.5-12.5 12.5-32.8 0-45.3s-32.8-12.5-45.3 0L224 338.7 54.6 169.4c-12.5-12.5-32.8-12.5-45.3 0s-12.5 32.8 0 45.3l192 192z"/>
    </symbol>

    <symbol id="check" viewBox="0 0 448 512">
        <path fill="currentColor" d="M434.8 70.1c14.3 10.4 17.5 30.4 7.1 44.7l-256 352c-5.5 7.6-14 12.3-23.4 13.1s-18.5-2.7-25.1-9.3l-128-128c-12.5-12.5-12.5-32.8 0-45.3s32.8-12.5 45.3 0l101.5 101.5 234-321.7c10.4-14.3 30.4-17.5 44.7-7.1z"/>
    </symbol>

    <symbol id="heart" viewBox="0 0 512 512">
        <path fill="currentColor" d="M241 87.1l15 20.7 15-20.7C296 52.5 336.2 32 378.9 32 452.4 32 512 91.6 512 165.1l0 2.6c0 112.2-139.9 242.5-212.9 298.2-12.4 9.4-27.6 14.1-43.1 14.1s-30.8-4.6-43.1-14.1C139.9 410.2 0 279.9 0 167.7l0-2.6C0 91.6 59.6 32 133.1 32 175.8 32 216 52.5 241 87.1z"/>
    </symbol>

    <symbol id="star" viewBox="0 0 576 512">
        <path fill="currentColor" d="M309.5-18.9c-4.1-8-12.4-13.1-21.4-13.1s-17.3 5.1-21.4 13.1L193.1 125.3 33.2 150.7c-8.9 1.4-16.3 7.7-19.1 16.3s-.5 18 5.8 24.4l114.4 114.5-25.2 159.9c-1.4 8.9 2.3 17.9 9.6 23.2s16.9 6.1 25 2L288.1 417.6 432.4 491c8 4.1 17.7 3.3 25-2s11-14.2 9.6-23.2L441.7 305.9 556.1 191.4c6.4-6.4 8.6-15.8 5.8-24.4s-10.1-14.9-19.1-16.3L383 125.3 309.5-18.9z"/>
    </symbol>

    <symbol id="burst" viewBox="0 0 512 512">
        <path fill="currentColor" d="M37.6 4.2C28-2.3 15.2-1.1 7 7S-2.3 28 4.2 37.6l112 163.3-99.6 32.3C6.7 236.4 0 245.6 0 256s6.7 19.6 16.6 22.8l103.1 33.4-52.9 100.6c-4.9 9.3-3.2 20.7 4.3 28.1s18.8 9.2 28.1 4.3l100.6-52.9 33.4 103.1c3.2 9.9 12.4 16.6 22.8 16.6s19.6-6.7 22.8-16.6l33.4-103.1 100.6 52.9c9.3 4.9 20.7 3.2 28.1-4.3s9.2-18.8 4.3-28.1l-52.9-100.6 103.1-33.4c9.9-3.2 16.6-12.4 16.6-22.8s-6.7-19.6-16.6-22.8l-106.5-34.5 25.7-70.4c3.2-8.8 1-18.6-5.6-25.2s-16.4-8.8-25.2-5.6l-70.4 25.7-34.5-106.5C275.6 6.7 266.4 0 256 0s-19.6 6.7-22.8 16.6L200.9 116.2 37.6 4.2z"/>
    </symbol>

    <symbol id="face-laugh-squint" viewBox="0 0 512 512">
        <path fill="currentColor" d="M256 512a256 256 0 1 0 0-512 256 256 0 1 0 0 512zM107.7 332.1C102 318 113.4 304 128.6 304l254.9 0c15.2 0 26.6 14 20.9 28.1-23.8 58.6-81.2 99.9-148.3 99.9s-124.6-41.3-148.3-99.9zm15-188.8c4.5-6.8 13.3-9.2 20.6-5.5l79.6 40c5.4 2.7 8.8 8.2 8.8 14.3s-3.4 11.6-8.8 14.3l-79.6 40c-7.3 3.6-16.1 1.3-20.6-5.5s-3.1-15.9 3.1-21.1L159 192 125.8 164.3c-6.2-5.2-7.6-14.3-3.1-21.1zm263.6 21.1L353 192 386.2 219.7c6.2 5.2 7.6 14.3 3.1 21.1s-13.3 9.2-20.6 5.5l-79.6-40c-5.4-2.7-8.8-8.2-8.8-14.3s3.4-11.6 8.8-14.3l79.6-40c7.3-3.6 16.1-1.3 20.6 5.5s3.1 15.9-3.1 21.1z"/>
    </symbol>

    <symbol id="mask-theater" viewBox="0 0 576 512">
        <path fill="currentColor" d="M-5 118L23.5 279.7c14 79.5 76.3 141.8 155.8 155.8l12.7 2.2c-16.5-28.6-27.1-60.7-30.6-94.5l-24.1 4.3c-9.7 1.7-18.8-5.8-16.9-15.5 4.8-24.7 19.1-46.6 39.7-60.9l0-74.6c-1.4 .8-3 1.3-4.7 1.6l-63 11.1c-8.7 1.5-17.3-4.4-15.9-13.1 3.1-19.6 18.4-36 39.1-39.7 17.2-3 33.9 3.5 44.6 15.8l0-22.7c0-22.5 6.9-52.4 32.3-73.4 26-21.5 67.7-43.9 124.9-54.2-30.5-16.3-86.3-32-163.8-18.4-80.3 14.2-128 50.1-150.1 76.1-9 10.5-10.8 24.9-8.4 38.5zM208 138.7l0 174.8c0 80.7 50.5 152.9 126.4 180.4L362.1 504c14.1 5.1 29.6 5.1 43.7 0L433.6 494C509.5 466.4 560 394.3 560 313.5l0-174.8c0-6.9-2.1-13.8-7-18.6-22.6-22.5-78.2-56-169-56s-146.4 33.6-169 56c-4.9 4.9-7 11.7-7 18.6zm66.1 187.1c-1.4-7 7-11 12.7-6.6 26.9 20.6 60.6 32.9 97.2 32.9s70.2-12.3 97.2-32.9c5.7-4.4 14.1-.4 12.7 6.6-10.1 51.4-55.5 90.3-109.9 90.3s-99.8-38.8-109.9-90.3zm.5-101.5C281.2 205.5 299 192 320 192s38.9 13.5 45.4 32.3c2.9 8.4-4.5 15.7-13.4 15.7l-64 0c-8.8 0-16.3-7.4-13.4-15.7zM480 240l-64 0c-8.8 0-16.3-7.4-13.4-15.7 6.5-18.8 24.4-32.3 45.4-32.3s38.9 13.5 45.4 32.3c2.9 8.4-4.5 15.7-13.4 15.7z"/>
    </symbol>

    <symbol id="wand-magic-sparkle" viewBox="0 0 576 512">
        <path fill="currentColor" d="M263.4-27L278.2 9.8 315 24.6c3 1.2 5 4.2 5 7.4s-2 6.2-5 7.4L278.2 54.2 263.4 91c-1.2 3-4.2 5-7.4 5s-6.2-2-7.4-5L233.8 54.2 197 39.4c-3-1.2-5-4.2-5-7.4s2-6.2 5-7.4L233.8 9.8 248.6-27c1.2-3 4.2-5 7.4-5s6.2 2 7.4 5zM110.7 41.7l21.5 50.1 50.1 21.5c5.9 2.5 9.7 8.3 9.7 14.7s-3.8 12.2-9.7 14.7l-50.1 21.5-21.5 50.1c-2.5 5.9-8.3 9.7-14.7 9.7s-12.2-3.8-14.7-9.7L59.8 164.2 9.7 142.7C3.8 140.2 0 134.4 0 128s3.8-12.2 9.7-14.7L59.8 91.8 81.3 41.7C83.8 35.8 89.6 32 96 32s12.2 3.8 14.7 9.7zM464 304c6.4 0 12.2 3.8 14.7 9.7l21.5 50.1 50.1 21.5c5.9 2.5 9.7 8.3 9.7 14.7s-3.8 12.2-9.7 14.7l-50.1 21.5-21.5 50.1c-2.5 5.9-8.3 9.7-14.7 9.7s-12.2-3.8-14.7-9.7l-21.5-50.1-50.1-21.5c-5.9-2.5-9.7-8.3-9.7-14.7s3.8-12.2 9.7-14.7l50.1-21.5 21.5-50.1c2.5-5.9 8.3-9.7 14.7-9.7zM460 0c11 0 21.6 4.4 29.5 12.2l42.3 42.3C539.6 62.4 544 73 544 84s-4.4 21.6-12.2 29.5l-88.2 88.2-101.3-101.3 88.2-88.2C438.4 4.4 449 0 460 0zM44.2 398.5L308.4 134.3 409.7 235.6 145.5 499.8C137.6 507.6 127 512 116 512s-21.6-4.4-29.5-12.2L44.2 457.5C36.4 449.6 32 439 32 428s4.4-21.6 12.2-29.5z"/>
    </symbol>

    <symbol id="skull" viewBox="0 0 512 512">
        <path fill="currentColor" d="M416 427.4c58.5-44 96-111.6 96-187.4 0-132.5-114.6-240-256-240S0 107.5 0 240c0 75.8 37.5 143.4 96 187.4L96 464c0 26.5 21.5 48 48 48l32 0 0-40c0-13.3 10.7-24 24-24s24 10.7 24 24l0 40 64 0 0-40c0-13.3 10.7-24 24-24s24 10.7 24 24l0 40 32 0c26.5 0 48-21.5 48-48l0-36.6zM96 256a64 64 0 1 1 128 0 64 64 0 1 1 -128 0zm256-64a64 64 0 1 1 0 128 64 64 0 1 1 0-128z"/>
    </symbol>

    <symbol id="play" viewBox="0 0 448 512">
        <path fill="currentColor" d="M91.2 36.9c-12.4-6.8-27.4-6.5-39.6 .7S32 57.9 32 72l0 368c0 14.1 7.5 27.2 19.6 34.4s27.2 7.5 39.6 .7l336-184c12.8-7 20.8-20.5 20.8-35.1s-8-28.1-20.8-35.1l-336-184z"/>
    </symbol>

    <symbol id="user" viewBox="0 0 448 512">
        <path fill="currentColor" d="M224 248a120 120 0 1 0 0-240 120 120 0 1 0 0 240zm-29.7 56C95.8 304 16 383.8 16 482.3 16 498.7 29.3 512 45.7 512l356.6 0c16.4 0 29.7-13.3 29.7-29.7 0-98.5-79.8-178.3-178.3-178.3l-59.4 0z"/>
    </symbol>

    <symbol id="lock" viewBox="0 0 384 512">
        <path fill="currentColor" d="M128 96l0 64 128 0 0-64c0-35.3-28.7-64-64-64s-64 28.7-64 64zM64 160l0-64C64 25.3 121.3-32 192-32S320 25.3 320 96l0 64c35.3 0 64 28.7 64 64l0 224c0 35.3-28.7 64-64 64L64 512c-35.3 0-64-28.7-64-64L0 224c0-35.3 28.7-64 64-64z"/>
    </symbol>

    <symbol id="eye" viewBox="0 0 576 512">
        <path fill="currentColor" d="M288 32c-80.8 0-145.5 36.8-192.6 80.6-46.8 43.5-78.1 95.4-93 131.1-3.3 7.9-3.3 16.7 0 24.6 14.9 35.7 46.2 87.7 93 131.1 47.1 43.7 111.8 80.6 192.6 80.6s145.5-36.8 192.6-80.6c46.8-43.5 78.1-95.4 93-131.1 3.3-7.9 3.3-16.7 0-24.6-14.9-35.7-46.2-87.7-93-131.1-47.1-43.7-111.8-80.6-192.6-80.6zM144 256a144 144 0 1 1 288 0 144 144 0 1 1 -288 0zm144-64c0 35.3-28.7 64-64 64-11.5 0-22.3-3-31.7-8.4-1 10.9-.1 22.1 2.9 33.2 13.7 51.2 66.4 81.6 117.6 67.9s81.6-66.4 67.9-117.6c-12.2-45.7-55.5-74.8-101.1-70.8 5.3 9.3 8.4 20.1 8.4 31.7z"/>
    </symbol>

    <symbol id="eye-slash" viewBox="0 0 576 512">
        <path fill="currentColor" d="M41-24.9c-9.4-9.4-24.6-9.4-33.9 0S-2.3-.3 7 9.1l528 528c9.4 9.4 24.6 9.4 33.9 0s9.4-24.6 0-33.9l-96.4-96.4c2.7-2.4 5.4-4.8 8-7.2 46.8-43.5 78.1-95.4 93-131.1 3.3-7.9 3.3-16.7 0-24.6-14.9-35.7-46.2-87.7-93-131.1-47.1-43.7-111.8-80.6-192.6-80.6-56.8 0-105.6 18.2-146 44.2L41-24.9zM204.5 138.7c23.5-16.8 52.4-26.7 83.5-26.7 79.5 0 144 64.5 144 144 0 31.1-9.9 59.9-26.7 83.5l-34.7-34.7c12.7-21.4 17-47.7 10.1-73.7-13.7-51.2-66.4-81.6-117.6-67.9-8.6 2.3-16.7 5.7-24 10l-34.7-34.7zM325.3 395.1c-11.9 3.2-24.4 4.9-37.3 4.9-79.5 0-144-64.5-144-144 0-12.9 1.7-25.4 4.9-37.3L69.4 139.2c-32.6 36.8-55 75.8-66.9 104.5-3.3 7.9-3.3 16.7 0 24.6 14.9 35.7 46.2 87.7 93 131.1 47.1 43.7 111.8 80.6 192.6 80.6 37.3 0 71.2-7.9 101.5-20.6l-64.2-64.2z"/>
    </symbol>

    <symbol id="sliders" viewBox="0 0 512 512">
        <path fill="currentColor" d="M32 64C14.3 64 0 78.3 0 96s14.3 32 32 32l86.7 0c12.3 28.3 40.5 48 73.3 48s61-19.7 73.3-48L480 128c17.7 0 32-14.3 32-32s-14.3-32-32-32L265.3 64C253 35.7 224.8 16 192 16s-61 19.7-73.3 48L32 64zm0 160c-17.7 0-32 14.3-32 32s14.3 32 32 32l246.7 0c12.3 28.3 40.5 48 73.3 48s61-19.7 73.3-48l54.7 0c17.7 0 32-14.3 32-32s-14.3-32-32-32l-54.7 0c-12.3-28.3-40.5-48-73.3-48s-61 19.7-73.3 48L32 224zm0 160c-17.7 0-32 14.3-32 32s14.3 32 32 32l54.7 0c12.3 28.3 40.5 48 73.3 48s61-19.7 73.3-48L480 448c17.7 0 32-14.3 32-32s-14.3-32-32-32l-246.7 0c-12.3-28.3-40.5-48-73.3-48s-61 19.7-73.3 48L32 384z"/>
    </symbol>

    <symbol id="list-ul" viewBox="0 0 512 512">
        <path fill="currentColor" d="M48 144a48 48 0 1 0 0-96 48 48 0 1 0 0 96zM192 64c-17.7 0-32 14.3-32 32s14.3 32 32 32l288 0c17.7 0 32-14.3 32-32s-14.3-32-32-32L192 64zm0 160c-17.7 0-32 14.3-32 32s14.3 32 32 32l288 0c17.7 0 32-14.3 32-32s-14.3-32-32-32l-288 0zm0 160c-17.7 0-32 14.3-32 32s14.3 32 32 32l288 0c17.7 0 32-14.3 32-32s-14.3-32-32-32l-288 0zM48 464a48 48 0 1 0 0-96 48 48 0 1 0 0 96zM96 256a48 48 0 1 0 -96 0 48 48 0 1 0 96 0z"/>
    </symbol>

    <symbol id="calendar-days" viewBox="0 0 448 512">
        <path fill="currentColor" d="M128 0c17.7 0 32 14.3 32 32l0 32 128 0 0-32c0-17.7 14.3-32 32-32s32 14.3 32 32l0 32 32 0c35.3 0 64 28.7 64 64l0 288c0 35.3-28.7 64-64 64L64 480c-35.3 0-64-28.7-64-64L0 128C0 92.7 28.7 64 64 64l32 0 0-32c0-17.7 14.3-32 32-32zM64 240l0 32c0 8.8 7.2 16 16 16l32 0c8.8 0 16-7.2 16-16l0-32c0-8.8-7.2-16-16-16l-32 0c-8.8 0-16 7.2-16 16zm128 0l0 32c0 8.8 7.2 16 16 16l32 0c8.8 0 16-7.2 16-16l0-32c0-8.8-7.2-16-16-16l-32 0c-8.8 0-16 7.2-16 16zm144-16c-8.8 0-16 7.2-16 16l0 32c0 8.8 7.2 16 16 16l32 0c8.8 0 16-7.2 16-16l0-32c0-8.8-7.2-16-16-16l-32 0zM64 368l0 32c0 8.8 7.2 16 16 16l32 0c8.8 0 16-7.2 16-16l0-32c0-8.8-7.2-16-16-16l-32 0c-8.8 0-16 7.2-16 16zm144-16c-8.8 0-16 7.2-16 16l0 32c0 8.8 7.2 16 16 16l32 0c8.8 0 16-7.2 16-16l0-32c0-8.8-7.2-16-16-16l-32 0zm112 16l0 32c0 8.8 7.2 16 16 16l32 0c8.8 0 16-7.2 16-16l0-32c0-8.8-7.2-16-16-16l-32 0c-8.8 0-16 7.2-16 16z"/>
    </symbol>

</svg>
